<svg width="460" height="248" viewBox="0 0 460 248" fill="none" xmlns="http://www.w3.org/2000/svg">
<path d="M274.167 22.125H173.833C165.95 22.125 159.5 28.7625 159.5 36.875V140.125C159.5 148.238 165.95 154.875 173.833 154.875H274.167C282.05 154.875 288.5 148.238 288.5 140.125V36.875C288.5 28.7625 282.05 22.125 274.167 22.125ZM274.167 51.625H259.833V36.875H274.167V51.625ZM188.167 81.125H173.833V66.375H188.167V81.125ZM188.167 95.875V110.625H173.833V95.875H188.167ZM202.5 95.875H245.5V140.125H202.5V95.875ZM202.5 81.125V36.875H245.5V81.125H202.5ZM259.833 95.875H274.167V110.625H259.833V95.875ZM259.833 81.125V66.375H274.167V81.125H259.833ZM188.167 36.875V51.625H173.833V36.875H188.167ZM173.833 125.375H188.167V140.125H173.833V125.375ZM259.833 140.125V125.375H274.167V140.125H259.833Z" fill="#CA4BCD"/>
<mask id="path-2-outside-1_14_82" maskUnits="userSpaceOnUse" x="12" y="175" width="448" height="73" fill="black">
<rect fill="white" x="12" y="175" width="448" height="73"/>
<path d="M55.7937 234H13.7138V223.68H55.1538C59.4738 223.68 61.3138 222.72 61.3138 219.04V216.08C61.3138 212.64 59.4738 211.36 55.2338 211.36H29.2338C16.9938 211.36 13.7938 206.88 13.7938 197.52V194.8C13.7938 183.6 18.2738 179.44 29.2338 179.44H46.1938V189.76H30.3538C26.6738 189.76 24.9138 190.88 24.9138 195.2V196.96C24.9138 200.4 26.3538 201.68 30.2738 201.68H55.7937C67.9538 201.68 72.4338 205.68 72.4338 215.52V219.84C72.4338 230 67.9538 234 55.7937 234ZM91.6813 190.64V213.2C91.6813 218 93.6013 219.6 98.4813 219.6H125.121V190.64H136.721V233.2C136.721 242.88 132.161 246.96 121.361 246.96H104.001V237.2H120.321C123.601 237.2 125.121 236.16 125.121 232.56V229.04H97.7613C84.8013 229.04 79.9213 224.16 79.9213 213.68V190.64H91.6813ZM199.531 234H183.451L158.251 213.52V234H146.251V176.64H158.251V210.72L183.291 190.64H198.811L171.851 211.52L199.531 234ZM240.585 234H217.145C204.665 234 201.305 229.6 201.305 222.56V218.48C201.305 211.2 204.345 207.04 216.345 207.04H248.425V206.08C248.425 200.56 246.345 199.12 241.065 199.12H229.225V190.64H241.065C254.905 190.64 260.345 195.6 260.345 206.64V217.2C260.345 229.76 255.945 234 240.585 234ZM248.425 218.08V214.4H217.625C214.825 214.4 213.145 215.36 213.145 218.8V221.76C213.145 224.8 214.985 225.84 218.025 225.84H240.425C246.025 225.84 248.425 224.56 248.425 218.08ZM349.216 234H337.536V207.92C337.536 202.56 335.536 200.88 330.976 200.88H323.216C316.096 200.88 314.336 202.64 314.336 207.92V234H303.856V207.92C303.856 202.64 302.256 200.88 294.896 200.88H287.296C282.576 200.88 280.736 202.56 280.736 207.92V234H269.136V206.16C269.136 195.52 273.216 190.64 284.656 190.64H295.136C303.936 190.64 307.456 193.12 309.056 198.24C310.576 193.12 314.336 190.64 322.896 190.64H333.696C345.136 190.64 349.216 195.52 349.216 206.16V234ZM370.679 234H358.519V179.44H370.679V234ZM443.674 234L435.754 221.44H397.994L390.234 234H376.234L407.914 183.6C409.834 180.48 412.154 178.24 417.114 178.24C421.994 178.24 424.314 180.48 426.234 183.6L457.754 234H443.674ZM416.874 190.56L403.674 212.08H430.074L416.874 190.56Z"/>
</mask>
<path d="M55.7937 234H13.7138V223.68H55.1538C59.4738 223.68 61.3138 222.72 61.3138 219.04V216.08C61.3138 212.64 59.4738 211.36 55.2338 211.36H29.2338C16.9938 211.36 13.7938 206.88 13.7938 197.52V194.8C13.7938 183.6 18.2738 179.44 29.2338 179.44H46.1938V189.76H30.3538C26.6738 189.76 24.9138 190.88 24.9138 195.2V196.96C24.9138 200.4 26.3538 201.68 30.2738 201.68H55.7937C67.9538 201.68 72.4338 205.68 72.4338 215.52V219.84C72.4338 230 67.9538 234 55.7937 234ZM91.6813 190.64V213.2C91.6813 218 93.6013 219.6 98.4813 219.6H125.121V190.64H136.721V233.2C136.721 242.88 132.161 246.96 121.361 246.96H104.001V237.2H120.321C123.601 237.2 125.121 236.16 125.121 232.56V229.04H97.7613C84.8013 229.04 79.9213 224.16 79.9213 213.68V190.64H91.6813ZM199.531 234H183.451L158.251 213.52V234H146.251V176.64H158.251V210.72L183.291 190.64H198.811L171.851 211.52L199.531 234ZM240.585 234H217.145C204.665 234 201.305 229.6 201.305 222.56V218.48C201.305 211.2 204.345 207.04 216.345 207.04H248.425V206.08C248.425 200.56 246.345 199.12 241.065 199.12H229.225V190.64H241.065C254.905 190.64 260.345 195.6 260.345 206.64V217.2C260.345 229.76 255.945 234 240.585 234ZM248.425 218.08V214.4H217.625C214.825 214.4 213.145 215.36 213.145 218.8V221.76C213.145 224.8 214.985 225.84 218.025 225.84H240.425C246.025 225.84 248.425 224.56 248.425 218.08ZM349.216 234H337.536V207.92C337.536 202.56 335.536 200.88 330.976 200.88H323.216C316.096 200.88 314.336 202.64 314.336 207.92V234H303.856V207.92C303.856 202.64 302.256 200.88 294.896 200.88H287.296C282.576 200.88 280.736 202.56 280.736 207.92V234H269.136V206.16C269.136 195.52 273.216 190.64 284.656 190.64H295.136C303.936 190.64 307.456 193.12 309.056 198.24C310.576 193.12 314.336 190.64 322.896 190.64H333.696C345.136 190.64 349.216 195.52 349.216 206.16V234ZM370.679 234H358.519V179.44H370.679V234ZM443.674 234L435.754 221.44H397.994L390.234 234H376.234L407.914 183.6C409.834 180.48 412.154 178.24 417.114 178.24C421.994 178.24 424.314 180.48 426.234 183.6L457.754 234H443.674ZM416.874 190.56L403.674 212.08H430.074L416.874 190.56Z" fill="#CA4BCD"/>
<path d="M13.7137 234H12.7137V235H13.7137V234ZM13.7137 223.68V222.68H12.7137V223.68H13.7137ZM46.1938 179.44H47.1938V178.44H46.1938V179.44ZM46.1938 189.76V190.76H47.1938V189.76H46.1938ZM55.7938 234V233H13.7137V234V235H55.7938V234ZM13.7137 234H14.7137V223.68H13.7137H12.7137V234H13.7137ZM13.7137 223.68V224.68H55.1538V223.68V222.68H13.7137V223.68ZM55.1538 223.68V224.68C57.3226 224.68 59.1492 224.454 60.4272 223.559C61.8094 222.592 62.3138 221.035 62.3138 219.04H61.3138H60.3138C60.3138 220.725 59.8981 221.488 59.2803 221.921C58.5583 222.426 57.3049 222.68 55.1538 222.68V223.68ZM61.3138 219.04H62.3138V216.08H61.3138H60.3138V219.04H61.3138ZM61.3138 216.08H62.3138C62.3138 214.184 61.7989 212.641 60.4676 211.633C59.2071 210.678 57.407 210.36 55.2338 210.36V211.36V212.36C57.3005 212.36 58.5404 212.682 59.2599 213.227C59.9086 213.719 60.3138 214.536 60.3138 216.08H61.3138ZM55.2338 211.36V210.36H29.2338V211.36V212.36H55.2338V211.36ZM29.2338 211.36V210.36C23.187 210.36 19.6662 209.243 17.6247 207.237C15.5927 205.24 14.7938 202.132 14.7938 197.52H13.7938H12.7938C12.7938 202.268 13.5948 206.08 16.2228 208.663C18.8413 211.237 23.0405 212.36 29.2338 212.36V211.36ZM13.7938 197.52H14.7938V194.8H13.7938H12.7938V197.52H13.7938ZM13.7938 194.8H14.7938C14.7938 189.297 15.9007 185.793 18.1036 183.634C20.3112 181.471 23.8412 180.44 29.2338 180.44V179.44V178.44C23.6663 178.44 19.4763 179.489 16.7038 182.206C13.9268 184.927 12.7938 189.103 12.7938 194.8H13.7938ZM29.2338 179.44V180.44H46.1938V179.44V178.44H29.2338V179.44ZM46.1938 179.44H45.1938V189.76H46.1938H47.1938V179.44H46.1938ZM46.1938 189.76V188.76H30.3538V189.76V190.76H46.1938V189.76ZM30.3538 189.76V188.76C28.4659 188.76 26.7727 189.034 25.5803 190.121C24.3661 191.227 23.9137 192.945 23.9137 195.2H24.9137H25.9137C25.9137 193.135 26.3414 192.133 26.9272 191.599C27.5348 191.046 28.5616 190.76 30.3538 190.76V189.76ZM24.9137 195.2H23.9137V196.96H24.9137H25.9137V195.2H24.9137ZM24.9137 196.96H23.9137C23.9137 198.787 24.2916 200.327 25.4621 201.36C26.5977 202.362 28.2558 202.68 30.2738 202.68V201.68V200.68C28.3717 200.68 27.3498 200.358 26.7854 199.86C26.2559 199.393 25.9137 198.573 25.9137 196.96H24.9137ZM30.2738 201.68V202.68H55.7938V201.68V200.68H30.2738V201.68ZM55.7938 201.68V202.68C61.812 202.68 65.6681 203.68 68.0285 205.674C70.3428 207.629 71.4338 210.73 71.4338 215.52H72.4338H73.4338C73.4338 210.47 72.2848 206.651 69.319 204.146C66.3994 201.68 61.9355 200.68 55.7938 200.68V201.68ZM72.4338 215.52H71.4338V219.84H72.4338H73.4338V215.52H72.4338ZM72.4338 219.84H71.4338C71.4338 224.799 70.3383 227.98 68.0218 229.972C65.6637 231.999 61.813 233 55.7938 233V234V235C61.9345 235 66.4039 234.001 69.3257 231.488C72.2892 228.94 73.4338 225.041 73.4338 219.84H72.4338ZM91.6813 190.64H92.6813V189.64H91.6813V190.64ZM125.121 219.6V220.6H126.121V219.6H125.121ZM125.121 190.64V189.64H124.121V190.64H125.121ZM136.721 190.64H137.721V189.64H136.721V190.64ZM104.001 246.96H103.001V247.96H104.001V246.96ZM104.001 237.2V236.2H103.001V237.2H104.001ZM125.121 229.04H126.121V228.04H125.121V229.04ZM79.9212 190.64V189.64H78.9212V190.64H79.9212ZM91.6813 190.64H90.6813V213.2H91.6813H92.6813V190.64H91.6813ZM91.6813 213.2H90.6813C90.6813 215.695 91.1733 217.651 92.5752 218.937C93.9543 220.202 95.9832 220.6 98.4812 220.6V219.6V218.6C96.0993 218.6 94.7282 218.198 93.9273 217.463C93.1492 216.749 92.6813 215.505 92.6813 213.2H91.6813ZM98.4812 219.6V220.6H125.121V219.6V218.6H98.4812V219.6ZM125.121 219.6H126.121V190.64H125.121H124.121V219.6H125.121ZM125.121 190.64V191.64H136.721V190.64V189.64H125.121V190.64ZM136.721 190.64H135.721V233.2H136.721H137.721V190.64H136.721ZM136.721 233.2H135.721C135.721 237.901 134.614 241.004 132.424 242.965C130.208 244.95 126.672 245.96 121.361 245.96V246.96V247.96C126.851 247.96 130.995 246.93 133.758 244.455C136.549 241.956 137.721 238.179 137.721 233.2H136.721ZM121.361 246.96V245.96H104.001V246.96V247.96H121.361V246.96ZM104.001 246.96H105.001V237.2H104.001H103.001V246.96H104.001ZM104.001 237.2V238.2H120.321V237.2V236.2H104.001V237.2ZM120.321 237.2V238.2C122.016 238.2 123.541 237.943 124.62 236.974C125.724 235.981 126.121 234.466 126.121 232.56H125.121H124.121C124.121 234.254 123.758 235.059 123.283 235.486C122.781 235.937 121.906 236.2 120.321 236.2V237.2ZM125.121 232.56H126.121V229.04H125.121H124.121V232.56H125.121ZM125.121 229.04V228.04H97.7613V229.04V230.04H125.121V229.04ZM97.7613 229.04V228.04C91.3692 228.04 87.2126 226.829 84.6464 224.543C82.1096 222.283 80.9212 218.783 80.9212 213.68H79.9212H78.9212C78.9212 219.057 80.1729 223.237 83.3161 226.037C86.4299 228.811 91.1933 230.04 97.7613 230.04V229.04ZM79.9212 213.68H80.9212V190.64H79.9212H78.9212V213.68H79.9212ZM79.9212 190.64V191.64H91.6813V190.64V189.64H79.9212V190.64ZM199.531 234V235H202.349L200.162 233.224L199.531 234ZM183.451 234L182.821 234.776L183.096 235H183.451V234ZM158.251 213.52L158.882 212.744L157.251 211.419V213.52H158.251ZM158.251 234V235H159.251V234H158.251ZM146.251 234H145.251V235H146.251V234ZM146.251 176.64V175.64H145.251V176.64H146.251ZM158.251 176.64H159.251V175.64H158.251V176.64ZM158.251 210.72H157.251V212.804L158.877 211.5L158.251 210.72ZM183.291 190.64V189.64H182.94L182.666 189.86L183.291 190.64ZM198.811 190.64L199.424 191.431L201.736 189.64H198.811V190.64ZM171.851 211.52L171.239 210.729L170.242 211.501L171.221 212.296L171.851 211.52ZM199.531 234V233H183.451V234V235H199.531V234ZM183.451 234L184.082 233.224L158.882 212.744L158.251 213.52L157.621 214.296L182.821 234.776L183.451 234ZM158.251 213.52H157.251V234H158.251H159.251V213.52H158.251ZM158.251 234V233H146.251V234V235H158.251V234ZM146.251 234H147.251V176.64H146.251H145.251V234H146.251ZM146.251 176.64V177.64H158.251V176.64V175.64H146.251V176.64ZM158.251 176.64H157.251V210.72H158.251H159.251V176.64H158.251ZM158.251 210.72L158.877 211.5L183.917 191.42L183.291 190.64L182.666 189.86L157.626 209.94L158.251 210.72ZM183.291 190.64V191.64H198.811V190.64V189.64H183.291V190.64ZM198.811 190.64L198.199 189.849L171.239 210.729L171.851 211.52L172.464 212.311L199.424 191.431L198.811 190.64ZM171.851 211.52L171.221 212.296L198.901 234.776L199.531 234L200.162 233.224L172.482 210.744L171.851 211.52ZM248.425 207.04V208.04H249.425V207.04H248.425ZM229.225 199.12H228.225V200.12H229.225V199.12ZM229.225 190.64V189.64H228.225V190.64H229.225ZM248.425 214.4H249.425V213.4H248.425V214.4ZM240.585 234V233H217.145V234V235H240.585V234ZM217.145 234V233C210.98 233 207.31 231.905 205.181 230.149C203.106 228.436 202.305 225.93 202.305 222.56H201.305H200.305C200.305 226.23 201.184 229.444 203.909 231.691C206.58 233.895 210.83 235 217.145 235V234ZM201.305 222.56H202.305V218.48H201.305H200.305V222.56H201.305ZM201.305 218.48H202.305C202.305 214.956 203.043 212.457 204.978 210.787C206.959 209.078 210.413 208.04 216.345 208.04V207.04V206.04C210.277 206.04 206.211 207.082 203.672 209.273C201.087 211.503 200.305 214.724 200.305 218.48H201.305ZM216.345 207.04V208.04H248.425V207.04V206.04H216.345V207.04ZM248.425 207.04H249.425V206.08H248.425H247.425V207.04H248.425ZM248.425 206.08H249.425C249.425 203.244 248.901 201.128 247.39 199.783C245.911 198.467 243.73 198.12 241.065 198.12V199.12V200.12C243.68 200.12 245.179 200.493 246.06 201.277C246.909 202.032 247.425 203.396 247.425 206.08H248.425ZM241.065 199.12V198.12H229.225V199.12V200.12H241.065V199.12ZM229.225 199.12H230.225V190.64H229.225H228.225V199.12H229.225ZM229.225 190.64V191.64H241.065V190.64V189.64H229.225V190.64ZM241.065 190.64V191.64C247.905 191.64 252.431 192.874 255.248 195.263C258.025 197.617 259.345 201.272 259.345 206.64H260.345H261.345C261.345 200.968 259.945 196.623 256.542 193.737C253.179 190.886 248.065 189.64 241.065 189.64V190.64ZM260.345 206.64H259.345V217.2H260.345H261.345V206.64H260.345ZM260.345 217.2H259.345C259.345 223.416 258.244 227.226 255.568 229.556C252.846 231.926 248.243 233 240.585 233V234V235C248.287 235 253.564 233.954 256.882 231.064C260.246 228.134 261.345 223.544 261.345 217.2H260.345ZM248.425 218.08H249.425V214.4H248.425H247.425V218.08H248.425ZM248.425 214.4V213.4H217.625V214.4V215.4H248.425V214.4ZM217.625 214.4V213.4C216.15 213.4 214.726 213.644 213.679 214.556C212.601 215.493 212.145 216.935 212.145 218.8H213.145H214.145C214.145 217.225 214.529 216.467 214.991 216.064C215.484 215.636 216.3 215.4 217.625 215.4V214.4ZM213.145 218.8H212.145V221.76H213.145H214.145V218.8H213.145ZM213.145 221.76H212.145C212.145 223.492 212.681 224.853 213.839 225.735C214.939 226.574 216.427 226.84 218.025 226.84V225.84V224.84C216.583 224.84 215.631 224.586 215.051 224.145C214.529 223.747 214.145 223.068 214.145 221.76H213.145ZM218.025 225.84V226.84H240.425V225.84V224.84H218.025V225.84ZM240.425 225.84V226.84C243.225 226.84 245.576 226.54 247.181 225.145C248.825 223.716 249.425 221.386 249.425 218.08H248.425H247.425C247.425 221.254 246.825 222.804 245.869 223.635C244.874 224.5 243.225 224.84 240.425 224.84V225.84ZM349.216 234V235H350.216V234H349.216ZM337.536 234H336.536V235H337.536V234ZM314.336 234V235H315.336V234H314.336ZM303.856 234H302.856V235H303.856V234ZM280.736 234V235H281.736V234H280.736ZM269.136 234H268.136V235H269.136V234ZM309.056 198.24L308.102 198.538L309.081 201.671L310.015 198.525L309.056 198.24ZM349.216 234V233H337.536V234V235H349.216V234ZM337.536 234H338.536V207.92H337.536H336.536V234H337.536ZM337.536 207.92H338.536C338.536 205.16 338.03 203.065 336.68 201.689C335.322 200.306 333.338 199.88 330.976 199.88V200.88V201.88C333.175 201.88 334.47 202.294 335.253 203.091C336.042 203.895 336.536 205.32 336.536 207.92H337.536ZM330.976 200.88V199.88H323.216V200.88V201.88H330.976V200.88ZM323.216 200.88V199.88C319.653 199.88 317.099 200.302 315.469 201.649C313.771 203.054 313.336 205.227 313.336 207.92H314.336H315.336C315.336 205.333 315.782 203.986 316.744 203.191C317.774 202.338 319.66 201.88 323.216 201.88V200.88ZM314.336 207.92H313.336V234H314.336H315.336V207.92H314.336ZM314.336 234V233H303.856V234V235H314.336V234ZM303.856 234H304.856V207.92H303.856H302.856V234H303.856ZM303.856 207.92H304.856C304.856 205.246 304.469 203.062 302.776 201.652C301.153 200.299 298.571 199.88 294.896 199.88V200.88V201.88C298.581 201.88 300.479 202.341 301.496 203.188C302.443 203.978 302.856 205.314 302.856 207.92H303.856ZM294.896 200.88V199.88H287.296V200.88V201.88H294.896V200.88ZM287.296 200.88V199.88C284.865 199.88 282.869 200.302 281.526 201.696C280.195 203.078 279.736 205.178 279.736 207.92H280.736H281.736C281.736 205.302 282.197 203.882 282.966 203.084C283.724 202.298 285.008 201.88 287.296 201.88V200.88ZM280.736 207.92H279.736V234H280.736H281.736V207.92H280.736ZM280.736 234V233H269.136V234V235H280.736V234ZM269.136 234H270.136V206.16H269.136H268.136V234H269.136ZM269.136 206.16H270.136C270.136 200.932 271.146 197.374 273.327 195.103C275.501 192.84 279.048 191.64 284.656 191.64V190.64V189.64C278.824 189.64 274.612 190.88 271.885 193.717C269.167 196.546 268.136 200.748 268.136 206.16H269.136ZM284.656 190.64V191.64H295.136V190.64V189.64H284.656V190.64ZM295.136 190.64V191.64C299.467 191.64 302.339 192.255 304.296 193.386C306.205 194.489 307.356 196.151 308.102 198.538L309.056 198.24L310.011 197.942C309.157 195.209 307.748 193.071 305.297 191.654C302.893 190.265 299.606 189.64 295.136 189.64V190.64ZM309.056 198.24L310.015 198.525C310.717 196.16 311.899 194.496 313.833 193.388C315.814 192.253 318.69 191.64 322.896 191.64V190.64V189.64C318.542 189.64 315.259 190.267 312.839 191.652C310.373 193.064 308.915 195.2 308.098 197.955L309.056 198.24ZM322.896 190.64V191.64H333.696V190.64V189.64H322.896V190.64ZM333.696 190.64V191.64C339.304 191.64 342.852 192.84 345.025 195.103C347.207 197.374 348.216 200.932 348.216 206.16H349.216H350.216C350.216 200.748 349.186 196.546 346.467 193.717C343.741 190.88 339.528 189.64 333.696 189.64V190.64ZM349.216 206.16H348.216V234H349.216H350.216V206.16H349.216ZM370.679 234V235H371.679V234H370.679ZM358.519 234H357.519V235H358.519V234ZM358.519 179.44V178.44H357.519V179.44H358.519ZM370.679 179.44H371.679V178.44H370.679V179.44ZM370.679 234V233H358.519V234V235H370.679V234ZM358.519 234H359.519V179.44H358.519H357.519V234H358.519ZM358.519 179.44V180.44H370.679V179.44V178.44H358.519V179.44ZM370.679 179.44H369.679V234H370.679H371.679V179.44H370.679ZM443.674 234L442.828 234.533L443.122 235H443.674V234ZM435.754 221.44L436.6 220.907L436.305 220.44H435.754V221.44ZM397.994 221.44V220.44H397.436L397.143 220.914L397.994 221.44ZM390.234 234V235H390.791L391.084 234.526L390.234 234ZM376.234 234L375.387 233.468L374.424 235H376.234V234ZM407.914 183.6L408.76 184.132L408.765 184.124L407.914 183.6ZM426.234 183.6L425.382 184.124L425.386 184.13L426.234 183.6ZM457.754 234V235H459.559L458.602 233.47L457.754 234ZM416.874 190.56L417.726 190.037L416.874 188.647L416.021 190.037L416.874 190.56ZM403.674 212.08L402.821 211.557L401.887 213.08H403.674V212.08ZM430.074 212.08V213.08H431.86L430.926 211.557L430.074 212.08ZM443.674 234L444.52 233.467L436.6 220.907L435.754 221.44L434.908 221.973L442.828 234.533L443.674 234ZM435.754 221.44V220.44H397.994V221.44V222.44H435.754V221.44ZM397.994 221.44L397.143 220.914L389.383 233.474L390.234 234L391.084 234.526L398.844 221.966L397.994 221.44ZM390.234 234V233H376.234V234V235H390.234V234ZM376.234 234L377.08 234.532L408.76 184.132L407.914 183.6L407.067 183.068L375.387 233.468L376.234 234ZM407.914 183.6L408.765 184.124C409.692 182.619 410.659 181.419 411.924 180.585C413.174 179.76 414.794 179.24 417.114 179.24V178.24V177.24C414.473 177.24 412.454 177.84 410.823 178.915C409.208 179.981 408.056 181.461 407.062 183.076L407.914 183.6ZM417.114 178.24V179.24C419.39 179.24 420.99 179.759 422.23 180.583C423.487 181.418 424.456 182.619 425.382 184.124L426.234 183.6L427.085 183.076C426.092 181.461 424.94 179.982 423.337 178.917C421.718 177.841 419.718 177.24 417.114 177.24V178.24ZM426.234 183.6L425.386 184.13L456.906 234.53L457.754 234L458.602 233.47L427.082 183.07L426.234 183.6ZM457.754 234V233H443.674V234V235H457.754V234ZM416.874 190.56L416.021 190.037L402.821 211.557L403.674 212.08L404.526 212.603L417.726 191.083L416.874 190.56ZM403.674 212.08V213.08H430.074V212.08V211.08H403.674V212.08ZM430.074 212.08L430.926 211.557L417.726 190.037L416.874 190.56L416.021 191.083L429.221 212.603L430.074 212.08Z" fill="#EED1C1" mask="url(#path-2-outside-1_14_82)"/>
</svg>
