<svg width="447" height="248" viewBox="0 0 447 248" fill="none" xmlns="http://www.w3.org/2000/svg">
<path d="M274.167 22.125H173.833C165.95 22.125 159.5 28.7625 159.5 36.875V140.125C159.5 148.238 165.95 154.875 173.833 154.875H274.167C282.05 154.875 288.5 148.238 288.5 140.125V36.875C288.5 28.7625 282.05 22.125 274.167 22.125ZM274.167 51.625H259.833V36.875H274.167V51.625ZM188.167 81.125H173.833V66.375H188.167V81.125ZM188.167 95.875V110.625H173.833V95.875H188.167ZM202.5 95.875H245.5V140.125H202.5V95.875ZM202.5 81.125V36.875H245.5V81.125H202.5ZM259.833 95.875H274.167V110.625H259.833V95.875ZM259.833 81.125V66.375H274.167V81.125H259.833ZM188.167 36.875V51.625H173.833V36.875H188.167ZM173.833 125.375H188.167V140.125H173.833V125.375ZM259.833 140.125V125.375H274.167V140.125H259.833Z" fill="#CA4BCD"/>
<mask id="path-2-outside-1_14_82" maskUnits="userSpaceOnUse" x="5" y="175" width="441" height="73" fill="black">
<rect fill="white" x="5" y="175" width="441" height="73"/>
<path d="M58.5159 220.24V222.48C58.5159 231.04 56.0359 234 43.8759 234H6.59594V224.64H42.3559C45.5559 224.64 46.6759 223.76 46.6759 220.8V219.36C46.6759 216.16 45.5559 215.76 42.6759 215.76H18.3559C8.51594 215.76 6.67594 211.92 6.67594 204.32V201.04C6.67594 193.52 9.47594 190.64 18.7559 190.64H35.2359V199.68H21.6359C19.3159 199.68 18.3559 200.4 18.3559 202.64V204.64C18.3559 207.04 19.3159 207.76 21.3959 207.76H44.9159C56.0359 207.76 58.5159 211.12 58.5159 220.24ZM77.4391 190.64V213.2C77.4391 218 79.3591 219.6 84.2391 219.6H110.879V190.64H122.479V233.2C122.479 242.88 117.919 246.96 107.119 246.96H89.7591V237.2H106.079C109.359 237.2 110.879 236.16 110.879 232.56V229.04H83.5191C70.5591 229.04 65.6791 224.16 65.6791 213.68V190.64H77.4391ZM185.289 234H169.209L144.009 213.52V234H132.009V176.64H144.009V210.72L169.049 190.64H184.569L157.609 211.52L185.289 234ZM226.343 234H202.903C190.423 234 187.063 229.6 187.063 222.56V218.48C187.063 211.2 190.103 207.04 202.103 207.04H234.183V206.08C234.183 200.56 232.103 199.12 226.823 199.12H214.983V190.64H226.823C240.663 190.64 246.103 195.6 246.103 206.64V217.2C246.103 229.76 241.703 234 226.343 234ZM234.183 218.08V214.4H203.383C200.583 214.4 198.903 215.36 198.903 218.8V221.76C198.903 224.8 200.743 225.84 203.783 225.84H226.183C231.783 225.84 234.183 224.56 234.183 218.08ZM334.974 234H323.294V207.92C323.294 202.56 321.294 200.88 316.734 200.88H308.974C301.854 200.88 300.094 202.64 300.094 207.92V234H289.614V207.92C289.614 202.64 288.014 200.88 280.654 200.88H273.054C268.334 200.88 266.494 202.56 266.494 207.92V234H254.894V206.16C254.894 195.52 258.974 190.64 270.414 190.64H280.894C289.694 190.64 293.214 193.12 294.814 198.24C296.334 193.12 300.094 190.64 308.654 190.64H319.454C330.894 190.64 334.974 195.52 334.974 206.16V234ZM356.437 234H344.277V179.44H356.437V234ZM429.432 234L421.512 221.44H383.752L375.992 234H361.992L393.672 183.6C395.592 180.48 397.912 178.24 402.872 178.24C407.752 178.24 410.072 180.48 411.992 183.6L443.512 234H429.432ZM402.632 190.56L389.432 212.08H415.832L402.632 190.56Z"/>
</mask>
<path d="M58.5159 220.24V222.48C58.5159 231.04 56.0359 234 43.8759 234H6.59594V224.64H42.3559C45.5559 224.64 46.6759 223.76 46.6759 220.8V219.36C46.6759 216.16 45.5559 215.76 42.6759 215.76H18.3559C8.51594 215.76 6.67594 211.92 6.67594 204.32V201.04C6.67594 193.52 9.47594 190.64 18.7559 190.64H35.2359V199.68H21.6359C19.3159 199.68 18.3559 200.4 18.3559 202.64V204.64C18.3559 207.04 19.3159 207.76 21.3959 207.76H44.9159C56.0359 207.76 58.5159 211.12 58.5159 220.24ZM77.4391 190.64V213.2C77.4391 218 79.3591 219.6 84.2391 219.6H110.879V190.64H122.479V233.2C122.479 242.88 117.919 246.96 107.119 246.96H89.7591V237.2H106.079C109.359 237.2 110.879 236.16 110.879 232.56V229.04H83.5191C70.5591 229.04 65.6791 224.16 65.6791 213.68V190.64H77.4391ZM185.289 234H169.209L144.009 213.52V234H132.009V176.64H144.009V210.72L169.049 190.64H184.569L157.609 211.52L185.289 234ZM226.343 234H202.903C190.423 234 187.063 229.6 187.063 222.56V218.48C187.063 211.2 190.103 207.04 202.103 207.04H234.183V206.08C234.183 200.56 232.103 199.12 226.823 199.12H214.983V190.64H226.823C240.663 190.64 246.103 195.6 246.103 206.64V217.2C246.103 229.76 241.703 234 226.343 234ZM234.183 218.08V214.4H203.383C200.583 214.4 198.903 215.36 198.903 218.8V221.76C198.903 224.8 200.743 225.84 203.783 225.84H226.183C231.783 225.84 234.183 224.56 234.183 218.08ZM334.974 234H323.294V207.92C323.294 202.56 321.294 200.88 316.734 200.88H308.974C301.854 200.88 300.094 202.64 300.094 207.92V234H289.614V207.92C289.614 202.64 288.014 200.88 280.654 200.88H273.054C268.334 200.88 266.494 202.56 266.494 207.92V234H254.894V206.16C254.894 195.52 258.974 190.64 270.414 190.64H280.894C289.694 190.64 293.214 193.12 294.814 198.24C296.334 193.12 300.094 190.64 308.654 190.64H319.454C330.894 190.64 334.974 195.52 334.974 206.16V234ZM356.437 234H344.277V179.44H356.437V234ZM429.432 234L421.512 221.44H383.752L375.992 234H361.992L393.672 183.6C395.592 180.48 397.912 178.24 402.872 178.24C407.752 178.24 410.072 180.48 411.992 183.6L443.512 234H429.432ZM402.632 190.56L389.432 212.08H415.832L402.632 190.56Z" fill="#CA4BCD"/>
<path d="M6.59594 234H5.59594V235H6.59594V234ZM6.59594 224.64V223.64H5.59594V224.64H6.59594ZM35.2359 190.64H36.2359V189.64H35.2359V190.64ZM35.2359 199.68V200.68H36.2359V199.68H35.2359ZM58.5159 220.24H57.5159V222.48H58.5159H59.5159V220.24H58.5159ZM58.5159 222.48H57.5159C57.5159 226.734 56.8801 229.189 55.1102 230.686C53.2746 232.239 49.9602 233 43.8759 233V234V235C49.9516 235 53.9573 234.281 56.4017 232.214C58.9117 230.091 59.5159 226.786 59.5159 222.48H58.5159ZM43.8759 234V233H6.59594V234V235H43.8759V234ZM6.59594 234H7.59594V224.64H6.59594H5.59594V234H6.59594ZM6.59594 224.64V225.64H42.3559V224.64V223.64H6.59594V224.64ZM42.3559 224.64V225.64C43.9812 225.64 45.3948 225.433 46.3713 224.585C47.3907 223.701 47.6759 222.359 47.6759 220.8H46.6759H45.6759C45.6759 222.201 45.4012 222.779 45.0606 223.075C44.6771 223.407 43.9306 223.64 42.3559 223.64V224.64ZM46.6759 220.8H47.6759V219.36H46.6759H45.6759V220.8H46.6759ZM46.6759 219.36H47.6759C47.6759 217.718 47.4061 216.38 46.3716 215.572C45.8744 215.184 45.2869 214.99 44.685 214.887C44.0875 214.784 43.4074 214.76 42.6759 214.76V215.76V216.76C43.3845 216.76 43.9243 216.786 44.3468 216.858C44.765 216.93 44.9974 217.036 45.1403 217.148C45.3857 217.34 45.6759 217.802 45.6759 219.36H46.6759ZM42.6759 215.76V214.76H18.3559V215.76V216.76H42.6759V215.76ZM18.3559 215.76V214.76C13.5151 214.76 10.9712 213.805 9.57486 212.227C8.15271 210.62 7.67594 208.107 7.67594 204.32H6.67594H5.67594C5.67594 208.133 6.11916 211.34 8.07702 213.553C10.0607 215.795 13.3567 216.76 18.3559 216.76V215.76ZM6.67594 204.32H7.67594V201.04H6.67594H5.67594V204.32H6.67594ZM6.67594 201.04H7.67594C7.67594 197.361 8.36992 195.133 9.90179 193.766C11.4698 192.367 14.1601 191.64 18.7559 191.64V190.64V189.64C14.0718 189.64 10.7221 190.353 8.57008 192.274C6.38196 194.227 5.67594 197.199 5.67594 201.04H6.67594ZM18.7559 190.64V191.64H35.2359V190.64V189.64H18.7559V190.64ZM35.2359 190.64H34.2359V199.68H35.2359H36.2359V190.64H35.2359ZM35.2359 199.68V198.68H21.6359V199.68V200.68H35.2359V199.68ZM21.6359 199.68V198.68C20.4254 198.68 19.2874 198.856 18.4705 199.565C17.6155 200.307 17.3559 201.409 17.3559 202.64H18.3559H19.3559C19.3559 201.631 19.5764 201.253 19.7814 201.075C20.0245 200.864 20.5265 200.68 21.6359 200.68V199.68ZM18.3559 202.64H17.3559V204.64H18.3559H19.3559V202.64H18.3559ZM18.3559 204.64H17.3559C17.3559 205.934 17.6077 207.057 18.4034 207.821C19.1913 208.578 20.2855 208.76 21.3959 208.76V207.76V206.76C20.4263 206.76 20.0006 206.582 19.7885 206.379C19.5842 206.183 19.3559 205.746 19.3559 204.64H18.3559ZM21.3959 207.76V208.76H44.9159V207.76V206.76H21.3959V207.76ZM44.9159 207.76V208.76C50.4479 208.76 53.4797 209.613 55.1842 211.292C56.8788 212.962 57.5159 215.698 57.5159 220.24H58.5159H59.5159C59.5159 215.662 58.9131 212.158 56.5877 209.868C54.2722 207.587 50.5039 206.76 44.9159 206.76V207.76ZM77.4391 190.64H78.4391V189.64H77.4391V190.64ZM110.879 219.6V220.6H111.879V219.6H110.879ZM110.879 190.64V189.64H109.879V190.64H110.879ZM122.479 190.64H123.479V189.64H122.479V190.64ZM89.7591 246.96H88.7591V247.96H89.7591V246.96ZM89.7591 237.2V236.2H88.7591V237.2H89.7591ZM110.879 229.04H111.879V228.04H110.879V229.04ZM65.6791 190.64V189.64H64.6791V190.64H65.6791ZM77.4391 190.64H76.4391V213.2H77.4391H78.4391V190.64H77.4391ZM77.4391 213.2H76.4391C76.4391 215.695 76.9311 217.651 78.333 218.937C79.7121 220.202 81.741 220.6 84.2391 220.6V219.6V218.6C81.8571 218.6 80.486 218.198 79.6851 217.463C78.907 216.749 78.4391 215.505 78.4391 213.2H77.4391ZM84.2391 219.6V220.6H110.879V219.6V218.6H84.2391V219.6ZM110.879 219.6H111.879V190.64H110.879H109.879V219.6H110.879ZM110.879 190.64V191.64H122.479V190.64V189.64H110.879V190.64ZM122.479 190.64H121.479V233.2H122.479H123.479V190.64H122.479ZM122.479 233.2H121.479C121.479 237.901 120.372 241.004 118.182 242.965C115.966 244.95 112.43 245.96 107.119 245.96V246.96V247.96C112.609 247.96 116.752 246.93 119.516 244.455C122.307 241.956 123.479 238.179 123.479 233.2H122.479ZM107.119 246.96V245.96H89.7591V246.96V247.96H107.119V246.96ZM89.7591 246.96H90.7591V237.2H89.7591H88.7591V246.96H89.7591ZM89.7591 237.2V238.2H106.079V237.2V236.2H89.7591V237.2ZM106.079 237.2V238.2C107.774 238.2 109.299 237.943 110.378 236.974C111.482 235.981 111.879 234.466 111.879 232.56H110.879H109.879C109.879 234.254 109.516 235.059 109.041 235.486C108.539 235.937 107.664 236.2 106.079 236.2V237.2ZM110.879 232.56H111.879V229.04H110.879H109.879V232.56H110.879ZM110.879 229.04V228.04H83.5191V229.04V230.04H110.879V229.04ZM83.5191 229.04V228.04C77.1271 228.04 72.9704 226.829 70.4042 224.543C67.8674 222.283 66.6791 218.783 66.6791 213.68H65.6791H64.6791C64.6791 219.057 65.9307 223.237 69.0739 226.037C72.1877 228.811 76.9511 230.04 83.5191 230.04V229.04ZM65.6791 213.68H66.6791V190.64H65.6791H64.6791V213.68H65.6791ZM65.6791 190.64V191.64H77.4391V190.64V189.64H65.6791V190.64ZM185.289 234V235H188.107L185.919 233.224L185.289 234ZM169.209 234L168.578 234.776L168.854 235H169.209V234ZM144.009 213.52L144.64 212.744L143.009 211.419V213.52H144.009ZM144.009 234V235H145.009V234H144.009ZM132.009 234H131.009V235H132.009V234ZM132.009 176.64V175.64H131.009V176.64H132.009ZM144.009 176.64H145.009V175.64H144.009V176.64ZM144.009 210.72H143.009V212.804L144.635 211.5L144.009 210.72ZM169.049 190.64V189.64H168.698L168.423 189.86L169.049 190.64ZM184.569 190.64L185.181 191.431L187.493 189.64H184.569V190.64ZM157.609 211.52L156.997 210.729L156 211.501L156.979 212.296L157.609 211.52ZM185.289 234V233H169.209V234V235H185.289V234ZM169.209 234L169.84 233.224L144.64 212.744L144.009 213.52L143.378 214.296L168.578 234.776L169.209 234ZM144.009 213.52H143.009V234H144.009H145.009V213.52H144.009ZM144.009 234V233H132.009V234V235H144.009V234ZM132.009 234H133.009V176.64H132.009H131.009V234H132.009ZM132.009 176.64V177.64H144.009V176.64V175.64H132.009V176.64ZM144.009 176.64H143.009V210.72H144.009H145.009V176.64H144.009ZM144.009 210.72L144.635 211.5L169.675 191.42L169.049 190.64L168.423 189.86L143.383 209.94L144.009 210.72ZM169.049 190.64V191.64H184.569V190.64V189.64H169.049V190.64ZM184.569 190.64L183.957 189.849L156.997 210.729L157.609 211.52L158.221 212.311L185.181 191.431L184.569 190.64ZM157.609 211.52L156.979 212.296L184.659 234.776L185.289 234L185.919 233.224L158.239 210.744L157.609 211.52ZM234.183 207.04V208.04H235.183V207.04H234.183ZM214.983 199.12H213.983V200.12H214.983V199.12ZM214.983 190.64V189.64H213.983V190.64H214.983ZM234.183 214.4H235.183V213.4H234.183V214.4ZM226.343 234V233H202.903V234V235H226.343V234ZM202.903 234V233C196.738 233 193.068 231.905 190.939 230.149C188.863 228.436 188.063 225.93 188.063 222.56H187.063H186.063C186.063 226.23 186.942 229.444 189.666 231.691C192.338 233.895 196.587 235 202.903 235V234ZM187.063 222.56H188.063V218.48H187.063H186.063V222.56H187.063ZM187.063 218.48H188.063C188.063 214.956 188.801 212.457 190.736 210.787C192.717 209.078 196.171 208.04 202.103 208.04V207.04V206.04C196.035 206.04 191.969 207.082 189.43 209.273C186.845 211.503 186.063 214.724 186.063 218.48H187.063ZM202.103 207.04V208.04H234.183V207.04V206.04H202.103V207.04ZM234.183 207.04H235.183V206.08H234.183H233.183V207.04H234.183ZM234.183 206.08H235.183C235.183 203.244 234.659 201.128 233.148 199.783C231.669 198.467 229.488 198.12 226.823 198.12V199.12V200.12C229.438 200.12 230.937 200.493 231.818 201.277C232.667 202.032 233.183 203.396 233.183 206.08H234.183ZM226.823 199.12V198.12H214.983V199.12V200.12H226.823V199.12ZM214.983 199.12H215.983V190.64H214.983H213.983V199.12H214.983ZM214.983 190.64V191.64H226.823V190.64V189.64H214.983V190.64ZM226.823 190.64V191.64C233.663 191.64 238.188 192.874 241.006 195.263C243.783 197.617 245.103 201.272 245.103 206.64H246.103H247.103C247.103 200.968 245.703 196.623 242.3 193.737C238.937 190.886 233.823 189.64 226.823 189.64V190.64ZM246.103 206.64H245.103V217.2H246.103H247.103V206.64H246.103ZM246.103 217.2H245.103C245.103 223.416 244.002 227.226 241.326 229.556C238.604 231.926 234.001 233 226.343 233V234V235C234.045 235 239.322 233.954 242.64 231.064C246.004 228.134 247.103 223.544 247.103 217.2H246.103ZM234.183 218.08H235.183V214.4H234.183H233.183V218.08H234.183ZM234.183 214.4V213.4H203.383V214.4V215.4H234.183V214.4ZM203.383 214.4V213.4C201.908 213.4 200.484 213.644 199.436 214.556C198.359 215.493 197.903 216.935 197.903 218.8H198.903H199.903C199.903 217.225 200.287 216.467 200.749 216.064C201.242 215.636 202.058 215.4 203.383 215.4V214.4ZM198.903 218.8H197.903V221.76H198.903H199.903V218.8H198.903ZM198.903 221.76H197.903C197.903 223.492 198.439 224.853 199.597 225.735C200.697 226.574 202.184 226.84 203.783 226.84V225.84V224.84C202.341 224.84 201.389 224.586 200.809 224.145C200.287 223.747 199.903 223.068 199.903 221.76H198.903ZM203.783 225.84V226.84H226.183V225.84V224.84H203.783V225.84ZM226.183 225.84V226.84C228.983 226.84 231.333 226.54 232.939 225.145C234.583 223.716 235.183 221.386 235.183 218.08H234.183H233.183C233.183 221.254 232.583 222.804 231.627 223.635C230.632 224.5 228.983 224.84 226.183 224.84V225.84ZM334.974 234V235H335.974V234H334.974ZM323.294 234H322.294V235H323.294V234ZM300.094 234V235H301.094V234H300.094ZM289.614 234H288.614V235H289.614V234ZM266.494 234V235H267.494V234H266.494ZM254.894 234H253.894V235H254.894V234ZM294.814 198.24L293.86 198.538L294.839 201.671L295.773 198.525L294.814 198.24ZM334.974 234V233H323.294V234V235H334.974V234ZM323.294 234H324.294V207.92H323.294H322.294V234H323.294ZM323.294 207.92H324.294C324.294 205.16 323.788 203.065 322.438 201.689C321.08 200.306 319.096 199.88 316.734 199.88V200.88V201.88C318.933 201.88 320.228 202.294 321.01 203.091C321.8 203.895 322.294 205.32 322.294 207.92H323.294ZM316.734 200.88V199.88H308.974V200.88V201.88H316.734V200.88ZM308.974 200.88V199.88C305.411 199.88 302.856 200.302 301.227 201.649C299.529 203.054 299.094 205.227 299.094 207.92H300.094H301.094C301.094 205.333 301.539 203.986 302.501 203.191C303.532 202.338 305.417 201.88 308.974 201.88V200.88ZM300.094 207.92H299.094V234H300.094H301.094V207.92H300.094ZM300.094 234V233H289.614V234V235H300.094V234ZM289.614 234H290.614V207.92H289.614H288.614V234H289.614ZM289.614 207.92H290.614C290.614 205.246 290.227 203.062 288.534 201.652C286.911 200.299 284.329 199.88 280.654 199.88V200.88V201.88C284.339 201.88 286.237 202.341 287.254 203.188C288.201 203.978 288.614 205.314 288.614 207.92H289.614ZM280.654 200.88V199.88H273.054V200.88V201.88H280.654V200.88ZM273.054 200.88V199.88C270.622 199.88 268.627 200.302 267.284 201.696C265.953 203.078 265.494 205.178 265.494 207.92H266.494H267.494C267.494 205.302 267.955 203.882 268.724 203.084C269.482 202.298 270.766 201.88 273.054 201.88V200.88ZM266.494 207.92H265.494V234H266.494H267.494V207.92H266.494ZM266.494 234V233H254.894V234V235H266.494V234ZM254.894 234H255.894V206.16H254.894H253.894V234H254.894ZM254.894 206.16H255.894C255.894 200.932 256.903 197.374 259.085 195.103C261.259 192.84 264.806 191.64 270.414 191.64V190.64V189.64C264.582 189.64 260.369 190.88 257.643 193.717C254.925 196.546 253.894 200.748 253.894 206.16H254.894ZM270.414 190.64V191.64H280.894V190.64V189.64H270.414V190.64ZM280.894 190.64V191.64C285.225 191.64 288.097 192.255 290.054 193.386C291.963 194.489 293.114 196.151 293.86 198.538L294.814 198.24L295.769 197.942C294.915 195.209 293.505 193.071 291.054 191.654C288.651 190.265 285.364 189.64 280.894 189.64V190.64ZM294.814 198.24L295.773 198.525C296.475 196.16 297.657 194.496 299.591 193.388C301.572 192.253 304.448 191.64 308.654 191.64V190.64V189.64C304.3 189.64 301.016 190.267 298.597 191.652C296.131 193.064 294.673 195.2 293.855 197.955L294.814 198.24ZM308.654 190.64V191.64H319.454V190.64V189.64H308.654V190.64ZM319.454 190.64V191.64C325.062 191.64 328.609 192.84 330.783 195.103C332.965 197.374 333.974 200.932 333.974 206.16H334.974H335.974C335.974 200.748 334.943 196.546 332.225 193.717C329.499 190.88 325.286 189.64 319.454 189.64V190.64ZM334.974 206.16H333.974V234H334.974H335.974V206.16H334.974ZM356.437 234V235H357.437V234H356.437ZM344.277 234H343.277V235H344.277V234ZM344.277 179.44V178.44H343.277V179.44H344.277ZM356.437 179.44H357.437V178.44H356.437V179.44ZM356.437 234V233H344.277V234V235H356.437V234ZM344.277 234H345.277V179.44H344.277H343.277V234H344.277ZM344.277 179.44V180.44H356.437V179.44V178.44H344.277V179.44ZM356.437 179.44H355.437V234H356.437H357.437V179.44H356.437ZM429.432 234L428.586 234.533L428.88 235H429.432V234ZM421.512 221.44L422.357 220.907L422.063 220.44H421.512V221.44ZM383.752 221.44V220.44H383.194L382.901 220.914L383.752 221.44ZM375.992 234V235H376.549L376.842 234.526L375.992 234ZM361.992 234L361.145 233.468L360.182 235H361.992V234ZM393.672 183.6L394.518 184.132L394.523 184.124L393.672 183.6ZM411.992 183.6L411.14 184.124L411.144 184.13L411.992 183.6ZM443.512 234V235H445.316L444.359 233.47L443.512 234ZM402.632 190.56L403.484 190.037L402.632 188.647L401.779 190.037L402.632 190.56ZM389.432 212.08L388.579 211.557L387.645 213.08H389.432V212.08ZM415.832 212.08V213.08H417.618L416.684 211.557L415.832 212.08ZM429.432 234L430.277 233.467L422.357 220.907L421.512 221.44L420.666 221.973L428.586 234.533L429.432 234ZM421.512 221.44V220.44H383.752V221.44V222.44H421.512V221.44ZM383.752 221.44L382.901 220.914L375.141 233.474L375.992 234L376.842 234.526L384.602 221.966L383.752 221.44ZM375.992 234V233H361.992V234V235H375.992V234ZM361.992 234L362.838 234.532L394.518 184.132L393.672 183.6L392.825 183.068L361.145 233.468L361.992 234ZM393.672 183.6L394.523 184.124C395.449 182.619 396.417 181.419 397.682 180.585C398.932 179.76 400.552 179.24 402.872 179.24V178.24V177.24C400.231 177.24 398.211 177.84 396.581 178.915C394.966 179.981 393.814 181.461 392.82 183.076L393.672 183.6ZM402.872 178.24V179.24C405.148 179.24 406.748 179.759 407.988 180.583C409.245 181.418 410.214 182.619 411.14 184.124L411.992 183.6L412.843 183.076C411.849 181.461 410.698 179.982 409.095 178.917C407.475 177.841 405.475 177.24 402.872 177.24V178.24ZM411.992 183.6L411.144 184.13L442.664 234.53L443.512 234L444.359 233.47L412.839 183.07L411.992 183.6ZM443.512 234V233H429.432V234V235H443.512V234ZM402.632 190.56L401.779 190.037L388.579 211.557L389.432 212.08L390.284 212.603L403.484 191.083L402.632 190.56ZM389.432 212.08V213.08H415.832V212.08V211.08H389.432V212.08ZM415.832 212.08L416.684 211.557L403.484 190.037L402.632 190.56L401.779 191.083L414.979 212.603L415.832 212.08Z" fill="#EED1C1" mask="url(#path-2-outside-1_14_82)"/>
</svg>
